<?xml version="1.0" standalone="no"?>
<!DOCTYPE svg PUBLIC "-//W3C//DTD SVG 20010904//EN"
 "http://www.w3.org/TR/2001/REC-SVG-20010904/DTD/svg10.dtd">
<svg version="1.0" xmlns="http://www.w3.org/2000/svg"
 width="700.000000pt" height="700.000000pt" viewBox="0 0 700.000000 700.000000"
 preserveAspectRatio="xMidYMid meet">
<metadata>
Created by potrace 1.14, written by Peter Selinger 2001-2017
</metadata>
<g transform="translate(0.000000,700.000000) scale(0.100000,-0.100000)"
fill="#000000" stroke="none">
<path d="M405 6836 c-108 -34 -197 -122 -235 -231 -20 -58 -20 -80 -18 -3124
l3 -3066 27 -55 c49 -99 119 -160 220 -191 58 -18 135 -19 2057 -19 l1998 0 0
1038 c1 722 4 1051 12 1084 25 107 116 205 228 248 l58 22 1048 1 1047 0 -2
2021 -3 2021 -27 56 c-49 98 -138 171 -243 198 -63 17 -6117 14 -6170 -3z"/>
<path d="M4936 2060 c-1 -3 -2 -432 -1 -955 l1 -950 89 1 c165 2 98 -55 978
823 885 883 838 827 845 995 l4 91 -957 0 c-526 0 -958 -2 -959 -5z"/>
</g>
</svg>
